%TF.GenerationSoftware,KiCad,Pcbnew,8.0.1*%
%TF.CreationDate,2024-04-26T21:59:39-07:00*%
%TF.ProjectId,boost-converter,626f6f73-742d-4636-9f6e-766572746572,rev?*%
%TF.SameCoordinates,Original*%
%TF.FileFunction,Copper,L1,Top*%
%TF.FilePolarity,Positive*%
%FSLAX46Y46*%
G04 Gerber Fmt 4.6, Leading zero omitted, Abs format (unit mm)*
G04 Created by KiCad (PCBNEW 8.0.1) date 2024-04-26 21:59:39*
%MOMM*%
%LPD*%
G01*
G04 APERTURE LIST*
G04 Aperture macros list*
%AMRoundRect*
0 Rectangle with rounded corners*
0 $1 Rounding radius*
0 $2 $3 $4 $5 $6 $7 $8 $9 X,Y pos of 4 corners*
0 Add a 4 corners polygon primitive as box body*
4,1,4,$2,$3,$4,$5,$6,$7,$8,$9,$2,$3,0*
0 Add four circle primitives for the rounded corners*
1,1,$1+$1,$2,$3*
1,1,$1+$1,$4,$5*
1,1,$1+$1,$6,$7*
1,1,$1+$1,$8,$9*
0 Add four rect primitives between the rounded corners*
20,1,$1+$1,$2,$3,$4,$5,0*
20,1,$1+$1,$4,$5,$6,$7,0*
20,1,$1+$1,$6,$7,$8,$9,0*
20,1,$1+$1,$8,$9,$2,$3,0*%
G04 Aperture macros list end*
%TA.AperFunction,ComponentPad*%
%ADD10RoundRect,0.250000X-1.125000X-1.125000X1.125000X-1.125000X1.125000X1.125000X-1.125000X1.125000X0*%
%TD*%
%TA.AperFunction,SMDPad,CuDef*%
%ADD11RoundRect,0.250000X0.475000X-0.337500X0.475000X0.337500X-0.475000X0.337500X-0.475000X-0.337500X0*%
%TD*%
%TA.AperFunction,SMDPad,CuDef*%
%ADD12RoundRect,0.087500X0.487500X0.087500X-0.487500X0.087500X-0.487500X-0.087500X0.487500X-0.087500X0*%
%TD*%
%TA.AperFunction,SMDPad,CuDef*%
%ADD13RoundRect,0.050000X0.675000X0.050000X-0.675000X0.050000X-0.675000X-0.050000X0.675000X-0.050000X0*%
%TD*%
%TA.AperFunction,SMDPad,CuDef*%
%ADD14RoundRect,0.062500X0.162500X0.062500X-0.162500X0.062500X-0.162500X-0.062500X0.162500X-0.062500X0*%
%TD*%
%TA.AperFunction,SMDPad,CuDef*%
%ADD15RoundRect,0.250000X-0.450000X0.350000X-0.450000X-0.350000X0.450000X-0.350000X0.450000X0.350000X0*%
%TD*%
%TA.AperFunction,SMDPad,CuDef*%
%ADD16R,2.950000X3.500000*%
%TD*%
%TA.AperFunction,SMDPad,CuDef*%
%ADD17RoundRect,0.250000X-0.475000X0.337500X-0.475000X-0.337500X0.475000X-0.337500X0.475000X0.337500X0*%
%TD*%
%TA.AperFunction,Conductor*%
%ADD18C,0.200000*%
%TD*%
%TA.AperFunction,Conductor*%
%ADD19C,0.381000*%
%TD*%
G04 APERTURE END LIST*
D10*
%TO.P,GND,1*%
%TO.N,GND*%
X147375000Y-109550000D03*
%TD*%
%TO.P,3V,1*%
%TO.N,+3V*%
X129800000Y-100675000D03*
%TD*%
%TO.P,Vout,1*%
%TO.N,+5V*%
X147350000Y-100025000D03*
%TD*%
D11*
%TO.P,C4,1*%
%TO.N,GND*%
X146975000Y-105575000D03*
%TO.P,C4,2*%
%TO.N,+5V*%
X146975000Y-103500000D03*
%TD*%
%TO.P,C3,1*%
%TO.N,GND*%
X144775000Y-105575000D03*
%TO.P,C3,2*%
%TO.N,+5V*%
X144775000Y-103500000D03*
%TD*%
%TO.P,C2,1*%
%TO.N,GND*%
X142575000Y-105575000D03*
%TO.P,C2,2*%
%TO.N,+5V*%
X142575000Y-103500000D03*
%TD*%
D12*
%TO.P,U1,1,GND*%
%TO.N,GND*%
X140437000Y-105125000D03*
D13*
%TO.P,U1,2,SW*%
%TO.N,Net-(U1-SW)*%
X140287000Y-104575000D03*
D12*
%TO.P,U1,3,VOUT*%
%TO.N,+5V*%
X140437000Y-104025000D03*
D14*
%TO.P,U1,4,FB*%
%TO.N,Net-(U1-FB)*%
X138837000Y-103825000D03*
%TO.P,U1,5,EN*%
%TO.N,+3V*%
X138837000Y-104325000D03*
%TO.P,U1,6,MODE*%
%TO.N,unconnected-(U1-MODE-Pad6)*%
X138837000Y-104825000D03*
%TO.P,U1,7,VIN*%
%TO.N,+3V*%
X138837000Y-105325000D03*
%TD*%
D15*
%TO.P,R2,1*%
%TO.N,Net-(U1-FB)*%
X137225000Y-100075000D03*
%TO.P,R2,2*%
%TO.N,GND*%
X137225000Y-102075000D03*
%TD*%
%TO.P,R1,1*%
%TO.N,+5V*%
X139300000Y-100075000D03*
%TO.P,R1,2*%
%TO.N,Net-(U1-FB)*%
X139300000Y-102075000D03*
%TD*%
D16*
%TO.P,L1,1*%
%TO.N,+3V*%
X130800000Y-107275000D03*
%TO.P,L1,2*%
%TO.N,Net-(U1-SW)*%
X136250000Y-107275000D03*
%TD*%
D17*
%TO.P,C1,1*%
%TO.N,+3V*%
X133025000Y-99650000D03*
%TO.P,C1,2*%
%TO.N,GND*%
X133025000Y-101725000D03*
%TD*%
D18*
%TO.N,Net-(U1-SW)*%
X136250000Y-107275000D02*
X139075000Y-107275000D01*
X139575000Y-104575000D02*
X140287000Y-104575000D01*
X139075000Y-107275000D02*
X139562000Y-106788000D01*
X139562000Y-106788000D02*
X139562000Y-104588000D01*
X139562000Y-104588000D02*
X139575000Y-104575000D01*
D19*
%TO.N,+3V*%
X129800000Y-100675000D02*
X129800000Y-106275000D01*
X129800000Y-106275000D02*
X130800000Y-107275000D01*
X131400000Y-99650000D02*
X130375000Y-100675000D01*
X130375000Y-100675000D02*
X129800000Y-100675000D01*
%TO.N,GND*%
X146975000Y-105575000D02*
X146975000Y-109150000D01*
X146975000Y-109150000D02*
X147375000Y-109550000D01*
D18*
X135275000Y-102075000D02*
X135275000Y-98800000D01*
X135275000Y-98800000D02*
X134775000Y-98300000D01*
X134775000Y-98300000D02*
X127875000Y-98300000D01*
X127540000Y-98635000D02*
X127540000Y-110440000D01*
X147375000Y-109575000D02*
X147375000Y-109550000D01*
X127875000Y-98300000D02*
X127540000Y-98635000D01*
X127540000Y-110440000D02*
X128700000Y-111600000D01*
X128700000Y-111600000D02*
X145350000Y-111600000D01*
X145350000Y-111600000D02*
X147375000Y-109575000D01*
D19*
X135275000Y-102075000D02*
X133375000Y-102075000D01*
X137225000Y-102075000D02*
X135275000Y-102075000D01*
D18*
%TO.N,Net-(U1-FB)*%
X138837000Y-103825000D02*
X138837000Y-102538000D01*
X138837000Y-102538000D02*
X139300000Y-102075000D01*
%TO.N,+3V*%
X138497614Y-105225000D02*
X137400000Y-105225000D01*
X137250000Y-104325000D02*
X138837000Y-104325000D01*
X138837000Y-105325000D02*
X138597614Y-105325000D01*
X133750000Y-104325000D02*
X137250000Y-104325000D01*
X138597614Y-105325000D02*
X138497614Y-105225000D01*
X137400000Y-105225000D02*
X137400000Y-104475000D01*
X137400000Y-104475000D02*
X137250000Y-104325000D01*
X130800000Y-107275000D02*
X133750000Y-104325000D01*
D19*
%TO.N,GND*%
X142309500Y-105840500D02*
X142575000Y-105575000D01*
X133375000Y-102075000D02*
X133025000Y-101725000D01*
%TO.N,Net-(U1-FB)*%
X139300000Y-102075000D02*
X139225000Y-102075000D01*
X139225000Y-102075000D02*
X137225000Y-100075000D01*
%TO.N,+3V*%
X131400000Y-99650000D02*
X133025000Y-99650000D01*
%TO.N,GND*%
X144775000Y-105575000D02*
X146975000Y-105575000D01*
X142575000Y-105575000D02*
X144775000Y-105575000D01*
X142575000Y-105575000D02*
X140887000Y-105575000D01*
X140887000Y-105575000D02*
X140437000Y-105125000D01*
%TO.N,+5V*%
X142575000Y-101675000D02*
X140975000Y-100075000D01*
X142575000Y-103500000D02*
X142575000Y-101675000D01*
X140975000Y-100075000D02*
X139300000Y-100075000D01*
X146975000Y-103500000D02*
X146975000Y-100400000D01*
X146975000Y-100400000D02*
X147350000Y-100025000D01*
X144775000Y-103500000D02*
X146975000Y-103500000D01*
X142575000Y-103500000D02*
X144775000Y-103500000D01*
X140437000Y-104025000D02*
X142050000Y-104025000D01*
X142050000Y-104025000D02*
X142575000Y-103500000D01*
D18*
X140437000Y-104025000D02*
X140475000Y-104025000D01*
X139000000Y-99650000D02*
X138850000Y-99650000D01*
%TD*%
M02*
