%TF.GenerationSoftware,KiCad,Pcbnew,8.0.1*%
%TF.CreationDate,2024-04-26T21:59:39-07:00*%
%TF.ProjectId,boost-converter,626f6f73-742d-4636-9f6e-766572746572,rev?*%
%TF.SameCoordinates,Original*%
%TF.FileFunction,Legend,Top*%
%TF.FilePolarity,Positive*%
%FSLAX46Y46*%
G04 Gerber Fmt 4.6, Leading zero omitted, Abs format (unit mm)*
G04 Created by KiCad (PCBNEW 8.0.1) date 2024-04-26 21:59:39*
%MOMM*%
%LPD*%
G01*
G04 APERTURE LIST*
%ADD10C,0.150000*%
%ADD11C,0.076200*%
%ADD12C,0.101600*%
%ADD13C,0.120000*%
G04 APERTURE END LIST*
D10*
X149252438Y-110361904D02*
X149204819Y-110457142D01*
X149204819Y-110457142D02*
X149204819Y-110599999D01*
X149204819Y-110599999D02*
X149252438Y-110742856D01*
X149252438Y-110742856D02*
X149347676Y-110838094D01*
X149347676Y-110838094D02*
X149442914Y-110885713D01*
X149442914Y-110885713D02*
X149633390Y-110933332D01*
X149633390Y-110933332D02*
X149776247Y-110933332D01*
X149776247Y-110933332D02*
X149966723Y-110885713D01*
X149966723Y-110885713D02*
X150061961Y-110838094D01*
X150061961Y-110838094D02*
X150157200Y-110742856D01*
X150157200Y-110742856D02*
X150204819Y-110599999D01*
X150204819Y-110599999D02*
X150204819Y-110504761D01*
X150204819Y-110504761D02*
X150157200Y-110361904D01*
X150157200Y-110361904D02*
X150109580Y-110314285D01*
X150109580Y-110314285D02*
X149776247Y-110314285D01*
X149776247Y-110314285D02*
X149776247Y-110504761D01*
X150204819Y-109885713D02*
X149204819Y-109885713D01*
X149204819Y-109885713D02*
X150204819Y-109314285D01*
X150204819Y-109314285D02*
X149204819Y-109314285D01*
X150204819Y-108838094D02*
X149204819Y-108838094D01*
X149204819Y-108838094D02*
X149204819Y-108599999D01*
X149204819Y-108599999D02*
X149252438Y-108457142D01*
X149252438Y-108457142D02*
X149347676Y-108361904D01*
X149347676Y-108361904D02*
X149442914Y-108314285D01*
X149442914Y-108314285D02*
X149633390Y-108266666D01*
X149633390Y-108266666D02*
X149776247Y-108266666D01*
X149776247Y-108266666D02*
X149966723Y-108314285D01*
X149966723Y-108314285D02*
X150061961Y-108361904D01*
X150061961Y-108361904D02*
X150157200Y-108457142D01*
X150157200Y-108457142D02*
X150204819Y-108599999D01*
X150204819Y-108599999D02*
X150204819Y-108838094D01*
X127929819Y-103861904D02*
X127929819Y-103242857D01*
X127929819Y-103242857D02*
X128310771Y-103576190D01*
X128310771Y-103576190D02*
X128310771Y-103433333D01*
X128310771Y-103433333D02*
X128358390Y-103338095D01*
X128358390Y-103338095D02*
X128406009Y-103290476D01*
X128406009Y-103290476D02*
X128501247Y-103242857D01*
X128501247Y-103242857D02*
X128739342Y-103242857D01*
X128739342Y-103242857D02*
X128834580Y-103290476D01*
X128834580Y-103290476D02*
X128882200Y-103338095D01*
X128882200Y-103338095D02*
X128929819Y-103433333D01*
X128929819Y-103433333D02*
X128929819Y-103719047D01*
X128929819Y-103719047D02*
X128882200Y-103814285D01*
X128882200Y-103814285D02*
X128834580Y-103861904D01*
X127929819Y-102957142D02*
X128929819Y-102623809D01*
X128929819Y-102623809D02*
X127929819Y-102290476D01*
X149179819Y-101498809D02*
X150179819Y-101165476D01*
X150179819Y-101165476D02*
X149179819Y-100832143D01*
X150179819Y-100355952D02*
X150132200Y-100451190D01*
X150132200Y-100451190D02*
X150084580Y-100498809D01*
X150084580Y-100498809D02*
X149989342Y-100546428D01*
X149989342Y-100546428D02*
X149703628Y-100546428D01*
X149703628Y-100546428D02*
X149608390Y-100498809D01*
X149608390Y-100498809D02*
X149560771Y-100451190D01*
X149560771Y-100451190D02*
X149513152Y-100355952D01*
X149513152Y-100355952D02*
X149513152Y-100213095D01*
X149513152Y-100213095D02*
X149560771Y-100117857D01*
X149560771Y-100117857D02*
X149608390Y-100070238D01*
X149608390Y-100070238D02*
X149703628Y-100022619D01*
X149703628Y-100022619D02*
X149989342Y-100022619D01*
X149989342Y-100022619D02*
X150084580Y-100070238D01*
X150084580Y-100070238D02*
X150132200Y-100117857D01*
X150132200Y-100117857D02*
X150179819Y-100213095D01*
X150179819Y-100213095D02*
X150179819Y-100355952D01*
X149513152Y-99165476D02*
X150179819Y-99165476D01*
X149513152Y-99594047D02*
X150036961Y-99594047D01*
X150036961Y-99594047D02*
X150132200Y-99546428D01*
X150132200Y-99546428D02*
X150179819Y-99451190D01*
X150179819Y-99451190D02*
X150179819Y-99308333D01*
X150179819Y-99308333D02*
X150132200Y-99213095D01*
X150132200Y-99213095D02*
X150084580Y-99165476D01*
X149513152Y-98832142D02*
X149513152Y-98451190D01*
X149179819Y-98689285D02*
X150036961Y-98689285D01*
X150036961Y-98689285D02*
X150132200Y-98641666D01*
X150132200Y-98641666D02*
X150179819Y-98546428D01*
X150179819Y-98546428D02*
X150179819Y-98451190D01*
D11*
X148632666Y-105684666D02*
X148656857Y-105708857D01*
X148656857Y-105708857D02*
X148681047Y-105781428D01*
X148681047Y-105781428D02*
X148681047Y-105829809D01*
X148681047Y-105829809D02*
X148656857Y-105902381D01*
X148656857Y-105902381D02*
X148608476Y-105950762D01*
X148608476Y-105950762D02*
X148560095Y-105974952D01*
X148560095Y-105974952D02*
X148463333Y-105999143D01*
X148463333Y-105999143D02*
X148390761Y-105999143D01*
X148390761Y-105999143D02*
X148293999Y-105974952D01*
X148293999Y-105974952D02*
X148245618Y-105950762D01*
X148245618Y-105950762D02*
X148197237Y-105902381D01*
X148197237Y-105902381D02*
X148173047Y-105829809D01*
X148173047Y-105829809D02*
X148173047Y-105781428D01*
X148173047Y-105781428D02*
X148197237Y-105708857D01*
X148197237Y-105708857D02*
X148221428Y-105684666D01*
X148342380Y-105249238D02*
X148681047Y-105249238D01*
X148148857Y-105370190D02*
X148511714Y-105491143D01*
X148511714Y-105491143D02*
X148511714Y-105176666D01*
X144707666Y-107284666D02*
X144731857Y-107308857D01*
X144731857Y-107308857D02*
X144756047Y-107381428D01*
X144756047Y-107381428D02*
X144756047Y-107429809D01*
X144756047Y-107429809D02*
X144731857Y-107502381D01*
X144731857Y-107502381D02*
X144683476Y-107550762D01*
X144683476Y-107550762D02*
X144635095Y-107574952D01*
X144635095Y-107574952D02*
X144538333Y-107599143D01*
X144538333Y-107599143D02*
X144465761Y-107599143D01*
X144465761Y-107599143D02*
X144368999Y-107574952D01*
X144368999Y-107574952D02*
X144320618Y-107550762D01*
X144320618Y-107550762D02*
X144272237Y-107502381D01*
X144272237Y-107502381D02*
X144248047Y-107429809D01*
X144248047Y-107429809D02*
X144248047Y-107381428D01*
X144248047Y-107381428D02*
X144272237Y-107308857D01*
X144272237Y-107308857D02*
X144296428Y-107284666D01*
X144248047Y-107115333D02*
X144248047Y-106800857D01*
X144248047Y-106800857D02*
X144441571Y-106970190D01*
X144441571Y-106970190D02*
X144441571Y-106897619D01*
X144441571Y-106897619D02*
X144465761Y-106849238D01*
X144465761Y-106849238D02*
X144489952Y-106825047D01*
X144489952Y-106825047D02*
X144538333Y-106800857D01*
X144538333Y-106800857D02*
X144659285Y-106800857D01*
X144659285Y-106800857D02*
X144707666Y-106825047D01*
X144707666Y-106825047D02*
X144731857Y-106849238D01*
X144731857Y-106849238D02*
X144756047Y-106897619D01*
X144756047Y-106897619D02*
X144756047Y-107042762D01*
X144756047Y-107042762D02*
X144731857Y-107091143D01*
X144731857Y-107091143D02*
X144707666Y-107115333D01*
X142407666Y-107309666D02*
X142431857Y-107333857D01*
X142431857Y-107333857D02*
X142456047Y-107406428D01*
X142456047Y-107406428D02*
X142456047Y-107454809D01*
X142456047Y-107454809D02*
X142431857Y-107527381D01*
X142431857Y-107527381D02*
X142383476Y-107575762D01*
X142383476Y-107575762D02*
X142335095Y-107599952D01*
X142335095Y-107599952D02*
X142238333Y-107624143D01*
X142238333Y-107624143D02*
X142165761Y-107624143D01*
X142165761Y-107624143D02*
X142068999Y-107599952D01*
X142068999Y-107599952D02*
X142020618Y-107575762D01*
X142020618Y-107575762D02*
X141972237Y-107527381D01*
X141972237Y-107527381D02*
X141948047Y-107454809D01*
X141948047Y-107454809D02*
X141948047Y-107406428D01*
X141948047Y-107406428D02*
X141972237Y-107333857D01*
X141972237Y-107333857D02*
X141996428Y-107309666D01*
X141996428Y-107116143D02*
X141972237Y-107091952D01*
X141972237Y-107091952D02*
X141948047Y-107043571D01*
X141948047Y-107043571D02*
X141948047Y-106922619D01*
X141948047Y-106922619D02*
X141972237Y-106874238D01*
X141972237Y-106874238D02*
X141996428Y-106850047D01*
X141996428Y-106850047D02*
X142044809Y-106825857D01*
X142044809Y-106825857D02*
X142093190Y-106825857D01*
X142093190Y-106825857D02*
X142165761Y-106850047D01*
X142165761Y-106850047D02*
X142456047Y-107140333D01*
X142456047Y-107140333D02*
X142456047Y-106825857D01*
D10*
X139088095Y-106229819D02*
X139088095Y-107039342D01*
X139088095Y-107039342D02*
X139135714Y-107134580D01*
X139135714Y-107134580D02*
X139183333Y-107182200D01*
X139183333Y-107182200D02*
X139278571Y-107229819D01*
X139278571Y-107229819D02*
X139469047Y-107229819D01*
X139469047Y-107229819D02*
X139564285Y-107182200D01*
X139564285Y-107182200D02*
X139611904Y-107134580D01*
X139611904Y-107134580D02*
X139659523Y-107039342D01*
X139659523Y-107039342D02*
X139659523Y-106229819D01*
X140659523Y-107229819D02*
X140088095Y-107229819D01*
X140373809Y-107229819D02*
X140373809Y-106229819D01*
X140373809Y-106229819D02*
X140278571Y-106372676D01*
X140278571Y-106372676D02*
X140183333Y-106467914D01*
X140183333Y-106467914D02*
X140088095Y-106515533D01*
D12*
X137622231Y-98651999D02*
X137259374Y-98905999D01*
X137622231Y-99087428D02*
X136860231Y-99087428D01*
X136860231Y-99087428D02*
X136860231Y-98797142D01*
X136860231Y-98797142D02*
X136896517Y-98724571D01*
X136896517Y-98724571D02*
X136932803Y-98688285D01*
X136932803Y-98688285D02*
X137005374Y-98651999D01*
X137005374Y-98651999D02*
X137114231Y-98651999D01*
X137114231Y-98651999D02*
X137186803Y-98688285D01*
X137186803Y-98688285D02*
X137223088Y-98724571D01*
X137223088Y-98724571D02*
X137259374Y-98797142D01*
X137259374Y-98797142D02*
X137259374Y-99087428D01*
X136932803Y-98361714D02*
X136896517Y-98325428D01*
X136896517Y-98325428D02*
X136860231Y-98252857D01*
X136860231Y-98252857D02*
X136860231Y-98071428D01*
X136860231Y-98071428D02*
X136896517Y-97998857D01*
X136896517Y-97998857D02*
X136932803Y-97962571D01*
X136932803Y-97962571D02*
X137005374Y-97926285D01*
X137005374Y-97926285D02*
X137077946Y-97926285D01*
X137077946Y-97926285D02*
X137186803Y-97962571D01*
X137186803Y-97962571D02*
X137622231Y-98397999D01*
X137622231Y-98397999D02*
X137622231Y-97926285D01*
X139722231Y-98626999D02*
X139359374Y-98880999D01*
X139722231Y-99062428D02*
X138960231Y-99062428D01*
X138960231Y-99062428D02*
X138960231Y-98772142D01*
X138960231Y-98772142D02*
X138996517Y-98699571D01*
X138996517Y-98699571D02*
X139032803Y-98663285D01*
X139032803Y-98663285D02*
X139105374Y-98626999D01*
X139105374Y-98626999D02*
X139214231Y-98626999D01*
X139214231Y-98626999D02*
X139286803Y-98663285D01*
X139286803Y-98663285D02*
X139323088Y-98699571D01*
X139323088Y-98699571D02*
X139359374Y-98772142D01*
X139359374Y-98772142D02*
X139359374Y-99062428D01*
X139722231Y-97901285D02*
X139722231Y-98336714D01*
X139722231Y-98118999D02*
X138960231Y-98118999D01*
X138960231Y-98118999D02*
X139069088Y-98191571D01*
X139069088Y-98191571D02*
X139141660Y-98264142D01*
X139141660Y-98264142D02*
X139177946Y-98336714D01*
D10*
X129808333Y-112229819D02*
X129332143Y-112229819D01*
X129332143Y-112229819D02*
X129332143Y-111229819D01*
X130665476Y-112229819D02*
X130094048Y-112229819D01*
X130379762Y-112229819D02*
X130379762Y-111229819D01*
X130379762Y-111229819D02*
X130284524Y-111372676D01*
X130284524Y-111372676D02*
X130189286Y-111467914D01*
X130189286Y-111467914D02*
X130094048Y-111515533D01*
D12*
X134924660Y-99801999D02*
X134960946Y-99838285D01*
X134960946Y-99838285D02*
X134997231Y-99947142D01*
X134997231Y-99947142D02*
X134997231Y-100019714D01*
X134997231Y-100019714D02*
X134960946Y-100128571D01*
X134960946Y-100128571D02*
X134888374Y-100201142D01*
X134888374Y-100201142D02*
X134815803Y-100237428D01*
X134815803Y-100237428D02*
X134670660Y-100273714D01*
X134670660Y-100273714D02*
X134561803Y-100273714D01*
X134561803Y-100273714D02*
X134416660Y-100237428D01*
X134416660Y-100237428D02*
X134344088Y-100201142D01*
X134344088Y-100201142D02*
X134271517Y-100128571D01*
X134271517Y-100128571D02*
X134235231Y-100019714D01*
X134235231Y-100019714D02*
X134235231Y-99947142D01*
X134235231Y-99947142D02*
X134271517Y-99838285D01*
X134271517Y-99838285D02*
X134307803Y-99801999D01*
X134997231Y-99076285D02*
X134997231Y-99511714D01*
X134997231Y-99293999D02*
X134235231Y-99293999D01*
X134235231Y-99293999D02*
X134344088Y-99366571D01*
X134344088Y-99366571D02*
X134416660Y-99439142D01*
X134416660Y-99439142D02*
X134452946Y-99511714D01*
D13*
%TO.C,C4*%
X146240000Y-104798752D02*
X146240000Y-104276248D01*
X147710000Y-104798752D02*
X147710000Y-104276248D01*
%TO.C,C3*%
X144040000Y-104798752D02*
X144040000Y-104276248D01*
X145510000Y-104798752D02*
X145510000Y-104276248D01*
%TO.C,C2*%
X141840000Y-104798752D02*
X141840000Y-104276248D01*
X143310000Y-104798752D02*
X143310000Y-104276248D01*
%TO.C,U1*%
X140812000Y-105685000D02*
X138812000Y-105685000D01*
X138812000Y-103465000D02*
X140812000Y-103465000D01*
X141212000Y-105695000D02*
X141212000Y-105415000D01*
X141492000Y-105415000D01*
X141212000Y-105695000D01*
G36*
X141212000Y-105695000D02*
G01*
X141212000Y-105415000D01*
X141492000Y-105415000D01*
X141212000Y-105695000D01*
G37*
%TO.C,R2*%
X137960000Y-100847936D02*
X137960000Y-101302064D01*
X136490000Y-100847936D02*
X136490000Y-101302064D01*
%TO.C,R1*%
X140035000Y-100847936D02*
X140035000Y-101302064D01*
X138565000Y-100847936D02*
X138565000Y-101302064D01*
%TO.C,L1*%
X130065000Y-105325000D02*
X130065000Y-104475000D01*
X130065000Y-110025000D02*
X130065000Y-109225000D01*
X130675000Y-103865000D02*
X136375000Y-103865000D01*
X136375000Y-110685000D02*
X130725000Y-110685000D01*
X136985000Y-104475000D02*
X136985000Y-105325000D01*
X136985000Y-109225000D02*
X136985000Y-110075000D01*
X130065000Y-104475000D02*
G75*
G02*
X130675000Y-103865000I610000J0D01*
G01*
X130725000Y-110685000D02*
G75*
G02*
X130065000Y-110025000I2J660002D01*
G01*
X136375000Y-103865000D02*
G75*
G02*
X136985000Y-104475000I0J-610000D01*
G01*
X136985000Y-110075000D02*
G75*
G02*
X136375000Y-110685000I-610000J0D01*
G01*
%TO.C,C1*%
X133760000Y-100426248D02*
X133760000Y-100948752D01*
X132290000Y-100426248D02*
X132290000Y-100948752D01*
%TD*%
M02*
